<svg xmlns="http://www.w3.org/2000/svg" version="1.1" xmlns:xlink="http://www.w3.org/1999/xlink" xmlns:svgjs="http://svgjs.com/svgjs" width="512" height="512"><svg width="512" height="512" viewBox="0 0 512 512" fill="none" xmlns="http://www.w3.org/2000/svg">
<rect width="512" height="512" rx="50" fill="#202020"></rect>
<path d="M291.246 329.259H88L172.351 142.101H206.627L291.246 329.259ZM135.665 299.848H242.51L189.221 176.324L135.665 299.848Z" fill="#FFBE25"></path>
<path d="M393.544 156.539C379.084 156.539 370.961 164.114 369.176 179.265L367.569 191.029H406.933L403.72 217.766H365.427L350.967 333.537C349.003 348.688 343.201 360.719 333.561 369.632C324.1 378.544 311.782 383 296.607 383C290.002 383 284.022 382.287 278.666 380.861C273.132 379.435 268.58 377.296 265.009 374.444L276.792 349.846C281.612 353.589 287.681 355.461 295.001 355.461C301.249 355.461 306.337 353.5 310.264 349.579C314.192 345.836 316.602 340.221 317.494 332.735L331.955 217.766H308.658L311.871 191.029H335.168L336.775 178.463C338.56 163.312 344.362 151.281 354.18 142.368C363.999 133.456 376.763 129 392.473 129C398.543 129 404.255 129.713 409.611 131.139C415.145 132.565 419.608 134.704 423 137.556L410.95 162.154C406.13 158.411 400.328 156.539 393.544 156.539Z" fill="#FFBE25"></path>
</svg><style>@media (prefers-color-scheme: light) { :root { filter: none; } }
@media (prefers-color-scheme: dark) { :root { filter: none; } }
</style></svg>