<?xml version="1.0" standalone="no"?>
<!DOCTYPE svg PUBLIC "-//W3C//DTD SVG 20010904//EN"
 "http://www.w3.org/TR/2001/REC-SVG-20010904/DTD/svg10.dtd">
<svg version="1.0" xmlns="http://www.w3.org/2000/svg"
 width="700.000000pt" height="700.000000pt" viewBox="0 0 700.000000 700.000000"
 preserveAspectRatio="xMidYMid meet">
<metadata>
Created by potrace 1.14, written by Peter Selinger 2001-2017
</metadata>
<g transform="translate(0.000000,700.000000) scale(0.100000,-0.100000)"
fill="#000000" stroke="none">
<path d="M4877 4894 c-1 -1 -24 -5 -51 -8 -157 -21 -294 -107 -387 -243 -36
-52 -84 -186 -94 -258 -11 -87 -15 -119 -20 -140 -4 -19 -12 -20 -127 -20
l-123 0 -12 -90 c-6 -49 -14 -114 -17 -142 -6 -61 -22 -55 147 -53 l98 1 -5
-38 c-6 -39 -33 -253 -42 -333 -3 -25 -7 -56 -9 -70 -5 -31 -16 -126 -20 -160
-6 -52 -17 -146 -20 -161 -2 -9 -8 -61 -15 -115 -6 -55 -13 -110 -15 -124 -5
-32 -12 -91 -20 -160 -21 -188 -61 -264 -159 -305 -70 -29 -195 -17 -264 26
-12 7 -23 11 -26 9 -2 -3 -31 -61 -64 -130 -41 -84 -57 -129 -51 -136 15 -18
100 -52 169 -68 42 -10 100 -14 174 -11 139 4 161 9 256 53 66 31 68 32 141
105 120 118 161 233 194 537 3 30 8 66 10 80 2 14 7 49 10 79 4 30 8 61 10 70
1 9 6 43 9 76 4 33 9 76 11 95 9 77 16 127 20 160 3 19 7 53 10 75 2 22 11 92
19 155 8 63 18 138 21 165 3 28 7 59 10 70 2 11 4 28 4 37 1 16 18 17 202 17
111 0 205 3 209 8 4 4 11 46 15 93 3 46 8 87 10 90 2 3 5 25 6 50 l4 45 -200
2 c-110 1 -205 2 -212 2 -6 1 -10 9 -8 19 2 9 6 42 10 72 14 105 31 152 72
199 45 53 107 76 203 75 60 0 85 -5 128 -27 l52 -26 56 111 c82 164 81 151 25
182 -62 33 -159 55 -261 59 -44 2 -82 2 -83 1z"/>
<path d="M2534 4662 c-24 -50 -44 -94 -44 -96 0 -3 -20 -48 -45 -100 -25 -53
-45 -98 -45 -100 0 -2 -17 -42 -39 -88 -21 -45 -106 -234 -189 -418 -182 -407
-195 -436 -238 -528 -19 -41 -34 -76 -34 -78 0 -3 -20 -48 -45 -101 -25 -52
-45 -97 -45 -99 0 -2 -16 -38 -36 -81 -20 -43 -49 -106 -64 -140 -16 -33 -30
-68 -32 -77 -3 -15 96 -16 1081 -17 595 0 1085 2 1087 4 4 4 -17 53 -93 217
-17 36 -45 98 -63 139 -17 40 -48 108 -67 150 -20 42 -43 94 -53 116 -20 46
-290 644 -325 720 -13 28 -85 187 -160 355 -75 168 -139 307 -141 309 -2 3
-86 5 -186 5 l-181 1 -43 -93z m476 -867 c128 -297 248 -576 267 -620 19 -44
38 -89 43 -100 8 -20 4 -20 -561 -20 -415 0 -569 3 -569 11 0 10 30 85 60 149
5 11 70 162 145 335 369 856 358 832 371 808 7 -13 116 -266 244 -563z"/>
</g>
</svg>
